<mxfile host="Electron" agent="Mozilla/5.0 (Windows NT 10.0; Win64; x64) AppleWebKit/537.36 (KHTML, like Gecko) draw.io/26.2.2 Chrome/134.0.6998.178 Electron/35.1.2 Safari/537.36" version="26.2.2">
  <diagram name="Page-1" id="doobsZ8yGiUM-K8C46Xq">
    <mxGraphModel dx="874" dy="537" grid="1" gridSize="10" guides="1" tooltips="1" connect="1" arrows="1" fold="1" page="1" pageScale="1" pageWidth="827" pageHeight="1169" math="0" shadow="0">
      <root>
        <mxCell id="0" />
        <mxCell id="1" parent="0" />
        <mxCell id="mv43CajHXFQo89PHI50x-4" value="" style="rounded=1;whiteSpace=wrap;html=1;fillColor=#f5f5f5;strokeColor=none;fontColor=#333333;" vertex="1" parent="1">
          <mxGeometry x="90" y="70" width="600" height="430" as="geometry" />
        </mxCell>
        <mxCell id="mv43CajHXFQo89PHI50x-3" value="&lt;font style=&quot;font-size: 13px;&quot;&gt;&lt;b&gt;Data Analysis &amp;amp;&lt;/b&gt;&lt;/font&gt;&lt;div&gt;&lt;font style=&quot;font-size: 13px;&quot;&gt;&lt;b&gt;Reporting&lt;/b&gt;&lt;/font&gt;&lt;/div&gt;" style="rounded=1;whiteSpace=wrap;html=1;strokeColor=none;fillColor=#f8cecc;" vertex="1" parent="1">
          <mxGeometry x="330" y="240" width="120" height="60" as="geometry" />
        </mxCell>
        <mxCell id="mv43CajHXFQo89PHI50x-2" value="Product Report&lt;div&gt;&lt;br&gt;&lt;/div&gt;" style="verticalLabelPosition=bottom;html=1;verticalAlign=top;align=center;strokeColor=none;fillColor=#00BEF2;shape=mxgraph.azure.sql_reporting;" vertex="1" parent="1">
          <mxGeometry x="540" y="300" width="80" height="90" as="geometry" />
        </mxCell>
        <mxCell id="mv43CajHXFQo89PHI50x-1" value="Customer Report&lt;div&gt;&lt;br&gt;&lt;/div&gt;" style="verticalLabelPosition=bottom;html=1;verticalAlign=top;align=center;strokeColor=none;fillColor=#00BEF2;shape=mxgraph.azure.sql_reporting;" vertex="1" parent="1">
          <mxGeometry x="540" y="130" width="80" height="90" as="geometry" />
        </mxCell>
        <mxCell id="mv43CajHXFQo89PHI50x-6" style="edgeStyle=orthogonalEdgeStyle;rounded=0;orthogonalLoop=1;jettySize=auto;html=1;" edge="1" parent="1" source="mv43CajHXFQo89PHI50x-5" target="mv43CajHXFQo89PHI50x-3">
          <mxGeometry relative="1" as="geometry" />
        </mxCell>
        <mxCell id="mv43CajHXFQo89PHI50x-5" value="Gold Layer&lt;div&gt;&lt;br&gt;&lt;/div&gt;" style="html=1;verticalLabelPosition=bottom;align=center;labelBackgroundColor=#ffffff;verticalAlign=top;strokeWidth=2;strokeColor=#d6b656;shadow=0;dashed=0;shape=mxgraph.ios7.icons.data;fillColor=#fff2cc;" vertex="1" parent="1">
          <mxGeometry x="140" y="202.5" width="120" height="135" as="geometry" />
        </mxCell>
        <mxCell id="mv43CajHXFQo89PHI50x-7" style="edgeStyle=orthogonalEdgeStyle;rounded=0;orthogonalLoop=1;jettySize=auto;html=1;entryX=-0.012;entryY=0.611;entryDx=0;entryDy=0;entryPerimeter=0;" edge="1" parent="1" source="mv43CajHXFQo89PHI50x-3" target="mv43CajHXFQo89PHI50x-1">
          <mxGeometry relative="1" as="geometry" />
        </mxCell>
        <mxCell id="mv43CajHXFQo89PHI50x-8" style="edgeStyle=orthogonalEdgeStyle;rounded=0;orthogonalLoop=1;jettySize=auto;html=1;entryX=-0.012;entryY=0.578;entryDx=0;entryDy=0;entryPerimeter=0;" edge="1" parent="1" source="mv43CajHXFQo89PHI50x-3" target="mv43CajHXFQo89PHI50x-2">
          <mxGeometry relative="1" as="geometry" />
        </mxCell>
        <mxCell id="mv43CajHXFQo89PHI50x-9" value="&lt;font style=&quot;font-size: 18px;&quot;&gt;&lt;b style=&quot;&quot;&gt;Report Generation&lt;/b&gt;&lt;/font&gt;" style="text;html=1;align=center;verticalAlign=middle;whiteSpace=wrap;rounded=0;" vertex="1" parent="1">
          <mxGeometry x="270" y="40" width="240" height="30" as="geometry" />
        </mxCell>
      </root>
    </mxGraphModel>
  </diagram>
</mxfile>
